<svg width="1250" height="1277" viewBox="0 0 1250 1277" fill="none" xmlns="http://www.w3.org/2000/svg">
<path d="M40 350C40 178.792 178.792 40 350 40H900C1071.21 40 1210 178.792 1210 350V927C1210 1098.21 1071.21 1237 900 1237H350C178.792 1237 40 1098.21 40 927V350Z" fill="white"/>
<rect x="40" y="40" width="1170" height="1197" rx="310" fill="#AD1D26"/>
<rect x="677" y="261" width="503.429" height="684.14" transform="rotate(12.9965 677 261)" fill="white"/>
<path d="M217 261H564L427 918H217L217 261Z" fill="white"/>
<path d="M217 261H564L427 918H217L217 261Z" fill="white"/>
<path d="M269 344H556L437.352 871H269V344Z" fill="#3FA6EC"/>
<path d="M269 344H556L437.352 871H269V344Z" fill="#AD1D26"/>
<path d="M881.699 345.47L1100.77 395.63L987.672 889.588L764.271 823.93L881.699 345.47Z" fill="#3FA6EC"/>
<path d="M881.652 345.46L1099.35 395.305L986.255 889.264L764.271 823.93L881.652 345.46Z" fill="#A91D1E"/>
<rect x="127" y="487" width="1024" height="340" fill="#AD1D26"/>
<path d="M568.42 709.753C565.315 725.484 559.68 738.585 551.515 749.055C543.35 759.525 533.581 767.32 522.207 772.44C510.834 777.559 498.757 779.935 485.979 779.567C472.348 779.174 460.601 775.876 450.738 769.671C440.874 763.465 433.811 754.594 429.549 743.055C425.287 731.517 424.765 717.552 427.985 701.16C430.996 685.426 436.585 672.277 444.752 661.712C452.92 651.147 462.739 643.259 474.21 638.047C485.681 632.836 497.853 630.415 510.727 630.786C524.263 631.176 535.938 634.496 545.753 640.748C555.615 647 562.652 655.942 566.864 667.574C571.124 679.207 571.643 693.267 568.42 709.753ZM528.795 704.064C530.36 695.772 530.657 688.77 529.684 683.058C528.713 677.299 526.447 672.923 522.886 669.931C519.326 666.891 514.47 665.283 508.317 665.106C501.313 664.904 495.064 666.429 489.57 669.682C484.076 672.934 479.463 677.704 475.729 683.991C471.995 690.278 469.289 697.897 467.61 706.849C465.853 715.23 465.509 722.23 466.579 727.851C467.696 733.472 470.084 737.733 473.742 740.633C477.448 743.535 482.33 745.073 488.388 745.247C495.298 745.446 501.451 743.966 506.848 740.805C512.291 737.646 516.855 732.97 520.538 726.776C524.269 720.583 527.022 713.013 528.795 704.064ZM764.673 671.921L715.332 670.5C715.808 666.31 715.681 662.517 714.95 659.121C714.218 655.725 712.882 652.785 710.941 650.301C709.001 647.759 706.422 645.79 703.206 644.394C699.99 642.999 696.133 642.237 691.637 642.107C683 641.859 675.217 643.796 668.289 647.918C661.363 651.982 655.537 657.942 650.81 665.8C646.086 673.598 642.618 682.971 640.408 693.921C638.445 704.522 638.131 713.365 639.467 720.45C640.861 727.536 643.815 732.891 648.329 736.514C652.903 740.139 658.916 742.059 666.371 742.274C671.34 742.417 675.913 741.956 680.088 740.892C684.323 739.83 688.098 738.251 691.415 736.156C694.793 734.004 697.68 731.422 700.076 728.412C702.532 725.345 704.436 721.936 705.788 718.185L755.483 719.617C753.369 727.253 749.77 735.025 744.687 742.931C739.606 750.778 733.122 757.963 725.237 764.485C717.354 770.949 708.146 776.102 697.614 779.943C687.083 783.784 675.309 785.518 662.294 785.143C645.255 784.652 630.661 780.501 618.511 772.691C606.42 764.882 597.801 753.739 592.652 739.262C587.562 724.787 586.971 707.303 590.877 686.81C594.762 667.027 601.779 650.562 611.927 637.413C622.076 624.265 634.229 614.49 648.387 608.089C662.545 601.687 677.492 598.713 693.229 599.167C705.121 599.509 715.724 601.384 725.041 604.79C734.416 608.198 742.241 613.012 748.516 619.233C754.852 625.395 759.432 632.899 762.256 641.743C765.08 650.588 765.886 660.647 764.673 671.921ZM834.369 787.612L770.475 785.772L884.95 570.797L965.883 573.128L995.382 792.25L931.488 790.41L914.741 631.765L913.038 631.716L834.369 787.612ZM839.403 701.642L959.524 705.102L950.58 749.181L830.46 745.721L839.403 701.642Z" fill="white"/>
<path d="M286.888 529.085L286.888 556.192L286.888 607.577C286.888 607.577 331.067 607.125 337.818 607.577C354.421 611.364 362.419 626.701 363.718 657.177C365.017 687.652 358.369 703.585 342.477 708.701C335.445 709.826 324.08 710.566 324.014 710.569L293.502 715.778C375.675 712.275 371.503 708.701 289.681 712.033L286.874 783.611C286.871 783.61 284.828 783.696 286.875 783.608L286.874 783.611C284.503 786.28 335 790.594 351.5 787.5C367.5 784.5 386.626 767.737 393.897 754.367C398.603 745.659 418.808 710.545 416.349 652.861C413.889 595.148 385.516 557.77 385.516 557.77C377.15 545.066 362.29 535.543 345.002 531.585C330.226 529.142 315.502 529.085 315.502 529.085L286.888 529.085C287.53 527.858 285.907 529.135 286.888 529.085Z" fill="white"/>
<path d="M217.469 525.037L270.421 525.825L266.496 789.266L213.544 788.477L217.469 525.037Z" fill="white"/>
<path d="M1053.51 620.864L1111.41 610.638L1070.48 789.915L1010 800.282L1053.51 620.864Z" fill="white"/>
<path d="M989 818L1089 830.5L989 844V818Z" fill="#AD1D26"/>
<path d="M1067 551.5L1131.02 536.638L1117.8 580.551L1056.01 592.983L1067 551.5Z" fill="white"/>
<path d="M1167.89 470.79L1150.52 496.152L1072 512L1072.11 483.436L1167.89 470.79Z" fill="#AD1D26"/>
<path d="M1070.5 521.5L1081.01 478L1106.46 471.507L1144.96 471.507L1136.96 510.007L1070.5 521.5Z" fill="white"/>
<path d="M1070.5 521.5L1081.01 478L1106.46 471.507L1144.96 471.507L1136.96 510.007L1070.5 521.5Z" fill="white"/>
<path d="M1064 396L1101 395.5L1068 532L1064 475V396Z" fill="#A91D1E"/>
<path d="M1097.01 412.025L1107.01 438.025V472.025L1081 478.5L1097.01 412.025Z" fill="white"/>
<path d="M350 41H900V39H350V41ZM1209 350V927H1211V350H1209ZM900 1236H350V1238H900V1236ZM41 927V350H39V927H41ZM350 1236C179.344 1236 41 1097.66 41 927H39C39 1098.76 178.239 1238 350 1238V1236ZM1209 927C1209 1097.66 1070.66 1236 900 1236V1238C1071.76 1238 1211 1098.76 1211 927H1209ZM900 41C1070.66 41 1209 179.344 1209 350H1211C1211 178.239 1071.76 39 900 39V41ZM350 39C178.239 39 39 178.239 39 350H41C41 179.344 179.344 41 350 41V39Z" fill="black" fill-opacity="0.1"/>
<rect x="40" y="8" width="55.375" height="26" rx="2" fill="white"/>
</svg>
